<svg xmlns="http://www.w3.org/2000/svg" viewBox="0 0 26 41" width="26" height="41">
	<style>
		tspan { white-space:pre }
		.shp0 { fill: #ffffff } 
	</style>
	<path id="scroll.svg" class="shp0" d="M13.5 11.76C12.58 11.76 11.84 12.5 11.84 13.42C11.84 14.33 12.58 15.07 13.5 15.07C14.41 15.07 15.15 14.33 15.15 13.42C15.15 12.5 14.41 11.76 13.5 11.76ZM12.54 1.99C6.61 2.47 2 7.44 2 13.42L2 27.49C2 33.84 7.16 39 13.5 39C19.84 39 25 33.84 25 27.49L25 13.42C25 7.44 20.38 2.47 14.45 1.99M13.5 37.09C8.21 37.09 3.91 32.78 3.91 27.49L3.91 13.42C3.91 8.12 8.21 3.81 13.5 3.81C18.79 3.81 23.09 8.12 23.09 13.42L23.09 27.49C23.09 32.78 18.79 37.09 13.5 37.09Z" />
</svg>